<?xml version="1.0" encoding="utf-8"?>
<!-- Generator: Adobe Illustrator 22.1.0, SVG Export Plug-In . SVG Version: 6.00 Build 0)  -->
<svg xmlns="http://www.w3.org/2000/svg" xmlns:xlink="http://www.w3.org/1999/xlink" version="1.1" id="Layer_1" x="0px" y="0px" viewBox="0 0 256 256" style="enable-background:new 0 0 256 256;" xml:space="preserve" width="512" height="512">
<style type="text/css">
	.st0{fill:#FFDF74;}
	.st1{fill:#FCE575;}
	.st2{fill:#FFD551;}
	.st3{fill:#F9BB32;}
	.st4{fill:#FFF4C1;}
	.st5{fill:#DB9C2E;}
	.st6{fill:#FFC34C;}
	.st7{fill:#FFEA63;}
	.st8{fill:#A56021;}
	.st9{fill:#E58D23;}
	.st10{fill:#CCC033;}
	.st11{fill:#99AF17;}
	.st12{fill:#FCDA4F;}
	.st13{fill:#8C4C17;}
	.st14{fill:#BF6C0D;}
	.st15{fill:#FFA730;}
	.st16{fill:#FF624B;}
	.st17{fill:#FCF9DE;}
	.st18{fill:#FFEACF;}
	.st19{fill:#FFD59A;}
	.st20{fill:#EACF32;}
	.st21{fill:#FF4B34;}
	.st22{fill:#FF9079;}
	.st23{fill:#FFB74B;}
</style>
<g>
	<g>
		<path class="st16" d="M151.376,98.719l68.676,119.172c1.557,2.702-1.224,5.831-4.083,4.593l-23.106-10.001    c-1.989-0.861-4.244,0.443-4.494,2.6l-2.908,25.049c-0.36,3.099-4.455,3.947-6.012,1.245l-68.676-119.172L151.376,98.719z"/>
	</g>
	<g>
		<g>
			<path class="st21" d="M134.773,126.205l24.332-14.074l-7.729-13.412l-40.603,23.486l68.676,119.172     c1.557,2.702,5.652,1.854,6.012-1.245l2.509-21.615L134.773,126.205z"/>
		</g>
		<g>
			<path class="st21" d="M220.031,217.855l-3.168-1.371c-1.989-0.861-4.244,0.443-4.494,2.599l-0.204,1.755l3.804,1.647     c2.859,1.237,5.64-1.892,4.083-4.594L220.031,217.855z"/>
		</g>
	</g>
	<g>
		<path class="st16" d="M104.624,98.719L35.948,217.892c-1.557,2.702,1.224,5.831,4.083,4.593l23.106-10.001    c1.989-0.861,4.244,0.443,4.494,2.6l2.908,25.049c0.36,3.099,4.455,3.947,6.012,1.245l68.676-119.172L104.624,98.719z"/>
	</g>
	<g>
		<path class="st21" d="M67.631,215.083l0.766,6.598l50.227-87.458l14.745,8.558l11.858-20.576l-40.603-23.486L35.948,217.892    c-1.557,2.702,1.224,5.831,4.083,4.594l23.107-10.001C65.126,211.623,67.381,212.927,67.631,215.083z"/>
	</g>
	<g>
		<path class="st22" d="M136.737,20.873l3.427-3.901c6.742-7.673,19.374-3.561,20.327,6.617l0.484,5.174    c0.655,6.997,7.293,11.829,14.137,10.291l5.061-1.137c9.956-2.238,17.764,8.528,12.563,17.323l-2.644,4.471    c-3.576,6.047-1.04,13.864,5.4,16.65l4.762,2.06c9.367,4.053,9.367,17.36,0,21.413l-4.762,2.06    c-6.44,2.786-8.976,10.604-5.4,16.65l2.644,4.471c5.201,8.795-2.607,19.561-12.563,17.323l-5.061-1.137    c-6.845-1.538-13.483,3.293-14.137,10.291l-0.484,5.174c-0.952,10.178-13.585,14.29-20.327,6.617l-3.427-3.901    c-4.635-5.275-12.84-5.275-17.475,0l-3.427,3.901c-6.742,7.673-19.374,3.561-20.327-6.617l-0.484-5.174    c-0.655-6.997-7.293-11.829-14.137-10.291l-5.061,1.137c-9.956,2.238-17.764-8.528-12.563-17.323l2.644-4.471    c3.576-6.047,1.04-13.864-5.4-16.65l-4.762-2.06c-9.367-4.053-9.367-17.36,0-21.413l4.762-2.06c6.44-2.786,8.976-10.604,5.4-16.65    l-2.644-4.471c-5.201-8.795,2.607-19.561,12.563-17.323l5.061,1.137c6.845,1.538,13.483-3.293,14.137-10.291l0.484-5.174    c0.952-10.178,13.585-14.29,20.327-6.617l3.427,3.901C123.898,26.148,132.102,26.148,136.737,20.873z"/>
	</g>
	<g>
		<g>
			<path class="st16" d="M129.024,149.491c-0.655-6.997-7.293-11.829-14.137-10.291l-5.061,1.137     c-9.956,2.238-17.764-8.528-12.563-17.323l2.644-4.471c3.576-6.047,1.04-13.865-5.4-16.651l-4.762-2.06     c-9.367-4.052-9.367-17.36,0-21.413l4.762-2.06c6.44-2.786,8.976-10.604,5.4-16.65l-2.644-4.471     c-5.201-8.795,2.607-19.561,12.563-17.323l5.061,1.137c6.845,1.538,13.483-3.293,14.137-10.291l0.377-4.026     c-3.656,0.441-7.483-0.841-10.139-3.864l-3.427-3.901c-6.742-7.673-19.375-3.561-20.327,6.617l-0.484,5.174     c-0.655,6.998-7.293,11.829-14.137,10.291l-5.061-1.137c-9.956-2.238-17.763,8.528-12.563,17.323l2.644,4.471     c3.576,6.046,1.04,13.864-5.4,16.65l-4.762,2.06c-9.367,4.053-9.367,17.36,0,21.413l4.762,2.06     c6.44,2.786,8.976,10.604,5.4,16.651l-2.644,4.471c-5.201,8.795,2.607,19.561,12.563,17.323l5.061-1.137     c6.845-1.538,13.483,3.293,14.137,10.291l0.484,5.174c0.952,10.178,13.585,14.29,20.327,6.617l3.427-3.901     c2.656-3.023,6.482-4.305,10.139-3.864L129.024,149.491z"/>
		</g>
	</g>
	<g>
		<ellipse class="st2" cx="128" cy="89.127" rx="54.321" ry="54.422"/>
	</g>
	<g>
		<path class="st1" d="M153.884,130.61c-0.962,0-1.906-0.461-2.486-1.317c-0.93-1.372-0.571-3.237,0.801-4.167    c11.974-8.115,19.123-21.573,19.123-36c0-1.657,1.343-3,3-3s3,1.343,3,3c0,16.42-8.134,31.734-21.758,40.967    C155.048,130.443,154.463,130.61,153.884,130.61z"/>
	</g>
	<g>
		<path class="st4" d="M143.117,71.721l13.696,4.411c3.344,1.077,4.564,5.176,2.353,7.906L150.11,95.22    c-0.724,0.894-1.117,2.01-1.114,3.16l0.037,14.389c0.009,3.513-3.512,5.94-6.792,4.681l-13.433-5.157    c-1.074-0.412-2.257-0.442-3.349-0.083l-13.673,4.482c-3.338,1.094-6.735-1.505-6.55-5.013l0.754-14.369    c0.06-1.148-0.277-2.283-0.956-3.211l-8.488-11.619c-2.072-2.837-0.65-6.87,2.744-7.779l13.899-3.723    c1.111-0.298,2.085-0.969,2.759-1.901l8.427-11.663c2.058-2.847,6.333-2.741,8.246,0.205l7.836,12.068    C141.083,70.649,142.023,71.369,143.117,71.721z"/>
	</g>
	<g>
		<path class="st3" d="M101.679,89.126c0-25.16,17.133-46.377,40.321-52.58c-4.469-1.196-9.16-1.842-14-1.842    c-29.953,0-54.321,24.413-54.321,54.422c0,30.009,24.368,54.422,54.321,54.422c4.84,0,9.531-0.646,14-1.842    C118.811,135.504,101.679,114.286,101.679,89.126z"/>
	</g>
	<g>
		<g>
			<path class="st1" d="M101.687,89.516c-0.001-0.13-0.008-0.259-0.008-0.389c0-5.451,0.807-10.716,2.303-15.685l-4.692,1.257     c-3.393,0.909-4.816,4.942-2.744,7.779L101.687,89.516z"/>
		</g>
		<g>
			<path class="st1" d="M109.277,116.849c-1.506-2.536-2.811-5.205-3.894-7.984l-0.148,2.812     C105.098,114.289,106.947,116.394,109.277,116.849z"/>
		</g>
	</g>
	<g>
		<circle class="st3" cx="150" cy="53.907" r="9"/>
	</g>
</g>
</svg>
